<svg width="132" height="263" viewBox="0 0 132 263" fill="none" xmlns="http://www.w3.org/2000/svg">
<g clip-path="url(#clip0_0_7)">
<path d="M132.31 154.767C145.3 154.767 155.83 144.253 155.83 131.282C155.83 118.312 145.3 107.797 132.31 107.797C119.321 107.797 108.791 118.312 108.791 131.282C108.791 144.253 119.321 154.767 132.31 154.767Z" fill="#33373E"/>
<path fill-rule="evenodd" clip-rule="evenodd" d="M132.315 83.5326C163.893 83.5326 193.229 88.0571 215.347 95.6607C241.997 104.822 258.383 118.709 258.383 131.283C258.383 144.386 241.018 159.139 212.399 168.607C190.763 175.765 162.291 179.501 132.315 179.501C101.581 179.501 72.4784 175.994 50.5982 168.528C22.9158 159.08 6.24243 144.137 6.24243 131.283C6.24243 118.811 21.8872 105.031 48.1626 95.884C70.364 88.155 100.424 83.5326 132.311 83.5326H132.315Z" stroke="#33373E" stroke-width="11.2354"/>
<path fill-rule="evenodd" clip-rule="evenodd" d="M90.6892 107.545C106.465 80.2295 125.045 57.1146 142.692 41.7803C163.953 23.3046 184.186 16.0691 195.094 22.3501C206.462 28.8961 210.585 51.2877 204.502 80.7721C199.908 103.064 188.921 129.558 173.946 155.487C158.592 182.072 141.011 205.494 123.605 220.686C101.579 239.912 80.285 246.869 69.1339 240.448C58.3134 234.221 54.1755 213.801 59.3664 186.502C63.7522 163.437 74.7589 135.126 90.684 107.544L90.6892 107.545Z" stroke="#33373E" stroke-width="11.2354"/>
<path fill-rule="evenodd" clip-rule="evenodd" d="M90.7188 155.557C74.8982 128.272 64.1269 100.65 59.6308 77.7259C54.2187 50.1057 58.0452 28.9879 68.9436 22.6886C80.3005 16.1234 101.787 23.7391 124.331 43.7268C141.376 58.8383 158.878 81.5698 173.897 107.475C189.295 134.034 200.836 160.941 205.325 183.586C211.006 212.242 206.408 234.138 195.267 240.577C184.458 246.826 164.676 240.21 143.584 222.086C125.762 206.773 106.695 183.112 90.7188 155.556V155.557Z" stroke="#33373E" stroke-width="11.2354"/>
</g>
<defs>
<clipPath id="clip0_0_7">
<rect width="263.386" height="263" fill="white" transform="translate(0.6138)"/>
</clipPath>
</defs>
</svg>
